External Loads File
version=1
nRows=46
nColumns=13
Range=5.000000e-03-10 seconds
endheader
time 	forceRightX 	forceRightY 	forceRightZ 	pointRightX 	pointRightY 	pointRightZ 	forceLeftX 	forceLeftY 	forceLeftZ 	pointLeftX 	pointLeftY 	pointLeftZ 		
7.505000 0.521477 748.428459 -0.000000 0.412287 0.211697 -0.106953 3.377186 -27.486393 -0.000000 0.192404 0.405828 -0.354603
7.510000 28.070899 742.612776 -0.000000 0.406217 0.203156 -0.106833 -1.744297 -30.423466 -0.000000 0.198442 0.415387 -0.353619
7.515000 53.044938 733.251252 -0.000000 0.399697 0.194971 -0.106736 -7.335550 -32.347291 -0.000000 0.204195 0.424556 -0.352968
7.520000 77.951722 720.209350 -0.000000 0.392614 0.187214 -0.106827 -13.328169 -32.700287 -0.000000 0.211051 0.433247 -0.352883
7.525000 100.308365 703.593504 -0.000000 0.385318 0.179962 -0.106554 -19.436849 -30.976022 -0.000000 0.218170 0.441297 -0.352200
7.530000 120.927647 683.173047 -0.000000 0.377600 0.173459 -0.106251 -25.527376 -26.613811 -0.000000 0.225850 0.448616 -0.351895
7.535000 139.519452 658.802261 -0.000000 0.369607 0.167428 -0.106032 -31.364421 -19.115670 -0.000000 0.233723 0.455430 -0.351828
7.540000 155.984095 630.394108 -0.000000 0.361303 0.161993 -0.105792 -36.618090 -8.164763 -0.000000 0.241830 0.461543 -0.351945
7.545000 170.371686 598.032518 -0.000000 0.352729 0.157228 -0.105534 -40.870710 6.278288 -0.000000 0.250239 0.466947 -0.352026
7.550000 182.829958 562.097778 -0.000000 0.343903 0.152987 -0.105427 -43.664092 23.985387 -0.000000 0.258964 0.471745 -0.352283
7.555000 192.870928 523.561831 -0.000000 0.334827 0.149586 -0.105336 -44.619776 44.454376 -0.000000 0.267756 0.475893 -0.352577
7.560000 200.464660 483.580328 -0.000000 0.325503 0.146865 -0.105164 -43.541712 67.056351 -0.000000 0.276349 0.479590 -0.353037
7.565000 206.370127 443.059110 -0.000000 0.315741 0.144569 -0.105011 -40.358844 91.248076 -0.000000 0.284897 0.482729 -0.353515
7.570000 209.662313 403.519376 -0.000000 0.306142 0.143046 -0.105086 -35.592901 116.587177 -0.000000 0.293086 0.485130 -0.354012
7.575000 211.074045 365.429678 -0.000000 0.296313 0.142258 -0.105082 -29.779750 143.166160 -0.000000 0.300713 0.486475 -0.354241
7.580000 210.970694 328.902465 -0.000000 0.286577 0.142122 -0.104798 -23.635478 171.305546 -0.000000 0.308142 0.487721 -0.354763
7.585000 209.444060 293.690043 -0.000000 0.277004 0.142405 -0.104856 -18.085373 201.278445 -0.000000 0.315299 0.488089 -0.355425
7.590000 206.732523 258.978207 -0.000000 0.267634 0.143429 -0.104967 -14.028269 233.089821 -0.000000 0.322244 0.487702 -0.356176
7.595000 202.951748 223.683233 -0.000000 0.258505 0.145089 -0.105093 -12.304195 266.364560 -0.000000 0.329154 0.486565 -0.356827
7.600000 197.961019 186.825509 -0.000000 0.249635 0.147321 -0.105173 -13.701979 300.385068 -0.000000 0.336042 0.484596 -0.357679
7.605000 191.583189 147.601855 -0.000000 0.241116 0.150299 -0.105379 -18.574839 334.171659 -0.000000 0.343097 0.481568 -0.358612
7.610000 183.329671 105.957553 -0.000000 0.233016 0.153841 -0.105627 -27.339143 366.519120 -0.000000 0.350166 0.477614 -0.359638
7.615000 172.913395 62.231387 -0.000000 0.225162 0.158000 -0.105824 -39.705852 396.171677 -0.000000 0.357348 0.473150 -0.360422
7.620000 160.077292 17.587528 -0.000000 0.217954 0.162844 -0.105988 -55.561004 421.983967 -0.000000 0.364665 0.468123 -0.361159
7.625000 144.867988 -26.570615 -0.000000 0.210837 0.168137 -0.106217 -73.994878 443.254426 -0.000000 0.371952 0.462607 -0.361728
7.630000 127.544393 -68.302151 -0.000000 0.204350 0.174076 -0.106321 -94.600590 459.720622 -0.000000 0.379188 0.456420 -0.362134
7.635000 108.591657 -105.788297 -0.000000 0.198235 0.180289 -0.106450 -116.428544 471.710083 -0.000000 0.386381 0.449524 -0.362518
7.640000 88.781286 -137.279988 -0.000000 0.192529 0.187057 -0.106397 -139.020055 479.828688 -0.000000 0.393411 0.442439 -0.362665
7.645000 68.815657 -161.631583 -0.000000 0.187317 0.194193 -0.106427 -161.031854 485.214100 -0.000000 0.400384 0.434430 -0.362681
7.650000 49.925851 -178.036272 -0.000000 0.182454 0.201674 -0.106518 -182.608902 488.803183 -0.000000 0.406953 0.426177 -0.362680
7.655000 32.841327 -186.562067 -0.000000 0.177975 0.209590 -0.106583 -202.492035 492.127661 -0.000000 0.413380 0.417400 -0.362642
7.660000 18.431052 -187.756600 -0.000000 0.173680 0.217852 -0.106779 -220.457032 496.304621 -0.000000 0.419275 0.408143 -0.362625
7.665000 7.100881 -182.679039 -0.000000 0.169741 0.226617 -0.106895 -235.872722 502.377771 -0.000000 0.424902 0.398539 -0.362471
7.670000 -0.857390 -172.649742 -0.000000 0.166211 0.235780 -0.106974 -248.774946 510.775009 -0.000000 0.430043 0.388677 -0.362320
7.675000 -5.567837 -159.097881 -0.000000 0.163132 0.245120 -0.107159 -259.126948 521.660055 -0.000000 0.434724 0.378547 -0.362155
7.680000 -7.604284 -143.384477 -0.000000 0.160598 0.254950 -0.107260 -266.460054 535.259028 -0.000000 0.438611 0.368102 -0.362097
7.685000 -7.448548 -126.696820 -0.000000 0.158599 0.264836 -0.107444 -271.326551 551.235895 -0.000000 0.441833 0.357425 -0.362168
7.690000 -5.917184 -109.954799 -0.000000 0.157163 0.275023 -0.107614 -273.315448 569.680674 -0.000000 0.444441 0.346538 -0.362268
7.695000 -3.628301 -93.828175 -0.000000 0.156281 0.285439 -0.107884 -272.444774 590.349596 -0.000000 0.446593 0.335443 -0.362091
7.700000 -0.993165 -78.758378 -0.000000 0.156001 0.296000 -0.108075 -269.065838 612.642616 -0.000000 0.448137 0.324275 -0.362138
7.705000 1.675954 -65.020509 -0.000000 0.156263 0.306648 -0.108303 -262.997002 635.960049 -0.000000 0.449144 0.313053 -0.362036
7.710000 4.197596 -52.842602 -0.000000 0.156766 0.317506 -0.108685 -253.804341 659.601178 -0.000000 0.449479 0.301862 -0.361906
7.715000 6.516745 -42.451446 -0.000000 0.158224 0.328256 -0.108918 -242.207535 682.366192 -0.000000 0.449100 0.290873 -0.361886
7.720000 8.392568 -34.071101 -0.000000 0.160143 0.339188 -0.109219 -226.926171 703.844905 -0.000000 0.448059 0.279870 -0.361826
7.725000 9.689981 -27.852095 -0.000000 0.162578 0.349990 -0.109584 -208.870683 722.892874 -0.000000 0.446329 0.268945 -0.361766
7.730000 10.212627 -23.857519 -0.000000 0.165498 0.360747 -0.109855 -188.566294 738.652027 -0.000000 0.443946 0.258357 -0.361676
